<?xml version="1.0" encoding="UTF-8"?>
<svg id="uuid-e84235b8-f59d-4070-a4e4-eb1a0b48cbcd" data-name="图层 1" xmlns="http://www.w3.org/2000/svg" xmlns:xlink="http://www.w3.org/1999/xlink" viewBox="0 0 73.7 73.7">
  <defs>
    <clipPath id="uuid-518fae5d-0bd6-4f21-a032-a9d002a25b12">
      <rect x="11.35" y="4.85" width="51" height="64" style="fill: none;"/>
    </clipPath>
    <linearGradient id="uuid-a9f667e7-a487-4107-a04d-aee05b1985e3" data-name="未命名的渐变" x1="58.32" y1="-17.77" x2="17.17" y2="-36.37" gradientTransform="translate(0 .06) scale(1 -1)" gradientUnits="userSpaceOnUse">
      <stop offset="0" stop-color="#201c1b"/>
      <stop offset=".36" stop-color="#77390d"/>
      <stop offset=".67" stop-color="#ea8101"/>
      <stop offset="1" stop-color="#f4b852"/>
    </linearGradient>
    <linearGradient id="uuid-50139924-a95c-4be2-82de-78c1eca01711" data-name="未命名的渐变 2" x1="16.41" y1="-56.14" x2="64.23" y2="-41.67" gradientTransform="translate(0 .06) scale(1 -1)" gradientUnits="userSpaceOnUse">
      <stop offset="0" stop-color="#1f1d1c"/>
      <stop offset=".37" stop-color="#77390d"/>
      <stop offset=".67" stop-color="#ea8101"/>
      <stop offset="1" stop-color="#f4fb52"/>
    </linearGradient>
    <radialGradient id="uuid-4fe5cc8e-4914-4832-ad62-fe05323e1a0f" data-name="未命名的渐变 3" cx="-33.37" cy="332.69" fx="-33.37" fy="332.69" r="1" gradientTransform="translate(198.31 1629.2) scale(4.9 -4.82)" gradientUnits="userSpaceOnUse">
      <stop offset="0" stop-color="#f4b852"/>
      <stop offset=".33" stop-color="#ea8101"/>
      <stop offset=".64" stop-color="#77390d"/>
      <stop offset="1" stop-color="#211c1d"/>
    </radialGradient>
  </defs>
  <g style="clip-path: url(#uuid-518fae5d-0bd6-4f21-a032-a9d002a25b12);">
    <g>
      <path d="M47.32,10.61l13.35,13.01c1.14,1.1,1.7,2.22,1.68,3.35-.02,1.13-.51,2.15-1.46,3.09-1,.98-2.08,1.47-3.23,1.49-1.15,.02-2.3-.53-3.44-1.63l-13.66-13.3c-1.55-1.51-3.05-2.58-4.49-3.21-1.44-.63-2.96-.73-4.54-.29-1.59,.43-3.3,1.53-5.12,3.31-2.52,2.46-3.72,4.76-3.6,6.92,.12,2.15,1.37,4.39,3.75,6.7l13.77,13.42c1.15,1.12,1.71,2.24,1.7,3.35-.02,1.11-.51,2.14-1.48,3.09-.97,.94-2.04,1.44-3.2,1.48-1.16,.04-2.32-.5-3.47-1.62l-13.35-13.01c-2.17-2.11-3.74-4.12-4.7-6.01-.96-1.89-1.33-4.03-1.07-6.41,.22-2.04,.89-4.02,2-5.93,1.11-1.92,2.69-3.87,4.75-5.88,2.45-2.39,4.79-4.22,7.02-5.49,2.22-1.27,4.38-1.98,6.46-2.13,2.08-.15,4.14,.26,6.17,1.22,2.03,.96,4.09,2.46,6.19,4.51h0Z" style="fill: url(#uuid-a9f667e7-a487-4107-a04d-aee05b1985e3);"/>
      <path d="M26.38,63.1l-13.35-13.01c-1.14-1.11-1.7-2.22-1.68-3.35,.02-1.13,.51-2.15,1.46-3.09,1-.97,2.08-1.47,3.23-1.49,1.15-.02,2.3,.52,3.44,1.63l13.65,13.3c1.56,1.51,3.05,2.58,4.49,3.21,1.44,.63,2.96,.72,4.55,.29,1.59-.43,3.3-1.53,5.12-3.31,2.52-2.46,3.72-4.76,3.6-6.92-.12-2.15-1.37-4.39-3.75-6.7l-7.33-7.08c-1.15-1.12-1.71-2.24-1.7-3.35,.02-1.11,.51-2.14,1.48-3.09,.97-.94,2.04-1.44,3.2-1.48,1.16-.04,2.32,.5,3.47,1.62l6.92,6.68c2.17,2.11,3.74,4.12,4.7,6.01,.96,1.89,1.33,4.03,1.07,6.41-.22,2.04-.89,4.02-2,5.93-1.11,1.92-2.69,3.87-4.75,5.88-2.45,2.39-4.79,4.22-7.02,5.49-2.23,1.27-4.38,1.98-6.47,2.13-2.08,.15-4.14-.26-6.17-1.22-2.03-.96-4.09-2.46-6.19-4.51h0Z" style="fill: url(#uuid-50139924-a95c-4be2-82de-78c1eca01711);"/>
      <path d="M34.7,29.53c2.71,0,4.9-2.16,4.9-4.82s-2.2-4.82-4.9-4.82-4.9,2.16-4.9,4.82,2.2,4.82,4.9,4.82Z" style="fill: url(#uuid-4fe5cc8e-4914-4832-ad62-fe05323e1a0f);"/>
    </g>
  </g>
</svg>